<?xml version="1.0" encoding="utf-8"?>
<!-- Generator: Adobe Illustrator 23.0.1, SVG Export Plug-In . SVG Version: 6.00 Build 0)  -->
<svg version="1.1" id="Layer_1" xmlns="http://www.w3.org/2000/svg" xmlns:xlink="http://www.w3.org/1999/xlink" x="0px" y="0px"
	 viewBox="0 0 66 50" style="enable-background:new 0 0 66 50;" xml:space="preserve">
<style type="text/css">
	.st0{fill:none;stroke:#7ACC00;}
	.st1{fill:none;stroke:#93CB40;}
	.st2{fill-rule:evenodd;clip-rule:evenodd;fill:#93CB40;}
	.st3{fill:none;stroke:#FFFFFF;}
	.st4{fill-rule:evenodd;clip-rule:evenodd;fill:#FFFFFF;}
</style>
<circle class="st0" cx="18.4" cy="41.2" r="7.6"/>
<circle class="st1" cx="18.4" cy="41.2" r="7.6"/>
<path class="st2" d="M7.4,31.9v-8.4c0-1.8-1.4-3.2-3.2-3.2S1,21.7,1,23.5v8.4h1v-8.4c0-1.2,1-2.2,2.2-2.2s2.2,1,2.2,2.2v8.4H7.4z"/>
<path class="st2" d="M35.5,20v10.7c0,6-4.1,11.1-9.6,12.6c-0.1,0.4-0.2,0.8-0.4,1.1c6.3-1.4,11-7,11-13.7V20H35.5z M2,31.8
	c0.4,5.3,4,9.7,8.9,11.3c0.1,0.4,0.2,0.8,0.4,1.2C5.6,42.7,1.4,37.8,1,31.8H2z"/>
<circle class="st3" cx="47.8" cy="8.4" r="7.6"/>
<circle class="st3" cx="47.8" cy="8.4" r="7.6"/>
<path class="st4" d="M58.7,17.7v8.4c0,1.8,1.4,3.2,3.2,3.2c1.8,0,3.2-1.4,3.2-3.2v-8.4h-1v8.4c0,1.2-1,2.2-2.2,2.2
	c-1.2,0-2.2-1-2.2-2.2v-8.4H58.7z"/>
<path class="st4" d="M40.7,5.2c-0.2,0.4-0.3,0.7-0.4,1.1c-5.5,1.5-9.6,6.5-9.6,12.6v10.6h-1V18.9C29.7,12.2,34.4,6.6,40.7,5.2z
	 M64.2,17.8c-0.4-5.3-4-9.7-8.9-11.3c-0.1-0.4-0.2-0.8-0.4-1.2c5.6,1.5,9.8,6.5,10.3,12.4H64.2z"/>
</svg>
