<svg width="65" height="65" viewBox="0 0 65 65" fill="none" xmlns="http://www.w3.org/2000/svg">
<path d="M29.8693 13.17C29.7625 12.743 29.3356 12.4228 28.9086 12.3161L22.6108 11.7824L20.0489 5.91151C19.8354 5.48453 19.4085 5.16431 18.9815 5.16431C18.5545 5.16431 18.1276 5.48453 17.9141 5.91151L15.3523 11.7824L9.05442 12.3161C8.62745 12.3161 8.20048 12.6363 8.09374 13.17C7.987 13.597 8.09374 14.1307 8.41397 14.4509L13.1107 18.6139L11.723 24.805C11.6163 25.232 11.8297 25.7657 12.15 25.9792C12.3635 26.0859 12.5769 26.1926 12.7904 26.1926C13.0039 26.1926 13.2174 26.0859 13.4309 25.9792L18.8748 22.6701L24.3186 25.9792C24.7456 26.1926 25.1726 26.1926 25.5996 25.8724C26.0265 25.5522 26.1333 25.1252 26.0265 24.6982L24.7456 18.6139L29.549 14.4509C29.8693 14.1307 29.976 13.7037 29.8693 13.17Z" stroke="#93CB40" stroke-miterlimit="10"/>
<path d="M57.8572 34.8212V34.5689C57.8572 33.2236 56.7641 32.0464 55.3347 32.0464H7.99472C6.64936 32.0464 5.47217 33.2236 5.47217 34.5689V34.8212C5.47217 36.1666 6.64936 37.3438 7.99472 37.3438H55.3347C56.68 37.3438 57.8572 36.1666 57.8572 34.8212Z" stroke="white" stroke-miterlimit="10"/>
<path d="M48.4633 57.9148H51.1985C52.3609 57.9148 53.2499 57.0258 53.2499 55.8634V43.1447C53.2499 41.9822 52.3609 41.0933 51.1985 41.0933H48.4633C47.3008 41.0933 46.4119 41.9822 46.4119 43.1447V55.8634C46.4119 57.0258 47.3008 57.9148 48.4633 57.9148Z" stroke="white" stroke-miterlimit="10"/>
<path d="M46.4119 43.1448C46.4119 43.1448 44.4289 43.2815 44.3605 43.1448C44.2238 42.8712 42.5143 38.153 42.2407 37.5376C42.1724 37.4008 37.7277 37.5376 36.4968 37.5376C36.2233 37.5376 36.1549 38.0846 36.1549 38.3582C36.1549 39.8625 36.2917 44.3756 36.1549 44.5124C35.813 44.7859 29.9323 37.606 29.9323 37.606C29.9323 37.606 23.7781 37.5376 23.8465 37.606C24.12 38.0846 29.7272 48.6152 29.4537 48.8203C29.1118 49.0255 17.6981 37.5564 17.6981 37.5564L12.2054 37.5315C12.2054 37.5315 10.7859 38.9052 12.2219 40.3412C15.9828 44.1021 26.4449 56.0686 27.9493 56.0686C31.7786 56.0686 41.6937 56.0686 45.0443 56.0686C46.07 56.0686 46.4119 55.248 46.4119 54.7694C46.4119 51.8974 46.4119 43.1448 46.4119 43.1448Z" stroke="white" stroke-miterlimit="10"/>
<path d="M36.2235 44.5122L29.3855 48.8885" stroke="white" stroke-miterlimit="10"/>
<rect x="36.0312" y="10.4688" width="1.01214" height="1" fill="white"/>
<rect x="39.0361" y="10.4688" width="1.01214" height="1" fill="white"/>
<rect x="42.0408" y="10.4688" width="1.01214" height="1" fill="white"/>
<rect x="45.0457" y="10.4688" width="1.01214" height="1" fill="white"/>
<rect x="48.0503" y="10.4688" width="1.01214" height="1" fill="white"/>
<rect x="36.0312" y="16.4375" width="1.01214" height="1" fill="white"/>
<rect x="39.0361" y="16.4375" width="1.01214" height="1" fill="white"/>
<rect x="42.0408" y="16.4375" width="1.01214" height="1" fill="white"/>
<rect x="45.0457" y="16.4375" width="1.01214" height="1" fill="white"/>
<rect x="48.0503" y="16.4375" width="1.01214" height="1" fill="white"/>
<rect x="51.0503" y="16.4375" width="1.01214" height="1" fill="white"/>
<rect x="54.0503" y="16.4375" width="1.01214" height="1" fill="white"/>
<rect x="57.0503" y="16.4375" width="1.01214" height="1" fill="white"/>
<rect x="36.0312" y="22.4375" width="1.01214" height="1" fill="white"/>
<rect x="39.0361" y="22.4375" width="1.01214" height="1" fill="white"/>
<rect x="42.0408" y="22.4375" width="1.01214" height="1" fill="white"/>
<rect x="45.0457" y="22.4375" width="1.01214" height="1" fill="white"/>
<rect x="48.0503" y="22.4375" width="1.01214" height="1" fill="white"/>
</svg>
