<svg width="110" height="115" viewBox="0 0 110 115" fill="none" xmlns="http://www.w3.org/2000/svg">
<circle cx="55.1389" cy="8.95039" r="7.6003" stroke="black" stroke-width="2"/>
<circle cx="55.1389" cy="8.95039" r="7.6003" stroke="black" stroke-width="2"/>
<path fill-rule="evenodd" clip-rule="evenodd" d="M66.3719 9.21761C66.374 9.12879 66.3751 9.03972 66.3751 8.95041C66.3751 8.82243 66.3729 8.69494 66.3687 8.56799C66.4164 8.57867 66.4642 8.58941 66.5119 8.60022L66.3719 9.21761ZM66.3729 107.66C66.3743 107.586 66.3751 107.512 66.3751 107.437C66.3751 107.286 66.3721 107.136 66.3662 106.986L66.5119 107.629C66.4656 107.64 66.4192 107.65 66.3729 107.66ZM103.681 43.1371L103.76 43.1127C103.758 43.1058 103.755 43.099 103.753 43.0921C103.729 43.1072 103.705 43.1221 103.681 43.1371ZM92.5192 23.6465C92.4569 23.6796 92.3947 23.7134 92.3327 23.7479L92.4836 23.608C92.4955 23.6208 92.5074 23.6337 92.5192 23.6465ZM6.92999 73.0539C6.91163 73.0643 6.89329 73.0749 6.87497 73.0854C6.83013 73.1113 6.78554 73.1375 6.74119 73.1639C6.73632 73.1482 6.73145 73.1324 6.72659 73.1167L6.92999 73.0539ZM18.0392 92.5876C18.0244 92.596 18.0095 92.6044 17.9946 92.6127C17.9973 92.6156 18 92.6185 18.0027 92.6214L18.0392 92.5876ZM103.712 73.27C103.728 73.219 103.744 73.1679 103.76 73.1167L103.086 72.9085C103.192 72.9655 103.298 73.0244 103.403 73.0852C103.508 73.1454 103.61 73.207 103.712 73.27ZM17.8977 23.7216C17.9326 23.6837 17.9676 23.6458 18.0027 23.608L18.5263 24.0935C18.3903 24.007 18.2517 23.923 18.1108 23.8416C18.04 23.8007 17.969 23.7607 17.8977 23.7216ZM105.258 58.8322L106.008 58.8428C106.011 58.6005 106.013 58.3578 106.013 58.1147C106.013 57.8716 106.011 57.6289 106.008 57.3867L105.258 57.3972L104.508 57.4077C104.511 57.643 104.513 57.8787 104.513 58.1147C104.513 58.3508 104.511 58.5864 104.508 58.8217L105.258 58.8322ZM105.658 52.0836C105.715 52.5625 105.765 53.0434 105.808 53.5262L105.061 53.5931L104.314 53.6601C104.272 53.1914 104.224 52.7247 104.169 52.2599L104.913 52.1718L105.658 52.0836ZM104.322 48.4102L105.058 48.2655C104.964 47.7899 104.864 47.3167 104.758 46.846L104.026 47.0117L103.295 47.1775C103.398 47.6343 103.495 48.0934 103.586 48.5549L104.322 48.4102ZM89.24 21.4243L89.7498 20.8742C89.3954 20.5457 89.0363 20.2221 88.6726 19.9037L88.1785 20.4679L87.6845 21.0322C88.0375 21.3413 88.3861 21.6554 88.7301 21.9743L89.24 21.4243ZM85.2194 18.0688L85.6693 17.4687C85.2828 17.179 84.8921 16.8946 84.4972 16.6157L84.0645 17.2283L83.6319 17.8409C84.0152 18.1116 84.3944 18.3876 84.7695 18.6689L85.2194 18.0688ZM80.8717 15.1508L81.2566 14.507C80.8421 14.2592 80.4237 14.0171 80.0016 13.7809L79.6353 14.4354L79.2691 15.0899C79.6786 15.3191 80.0846 15.554 80.4869 15.7945L80.8717 15.1508ZM76.2433 12.7036L76.5585 12.0231C76.1203 11.8201 75.6786 11.6231 75.2336 11.4323L74.938 12.1216L74.6425 12.8109C75.0742 12.9961 75.5028 13.1872 75.9281 13.3842L76.2433 12.7036ZM71.3837 10.7564L71.6256 10.0464C71.1684 9.89064 70.7081 9.74118 70.2451 9.59817L70.0238 10.3148L69.8025 11.0314C70.2517 11.1701 70.6982 11.3151 71.1419 11.4663L71.3837 10.7564ZM40.4625 10.3148L40.2411 9.59816C39.7781 9.74118 39.3179 9.89064 38.8606 10.0464L39.1025 10.7564L39.3444 11.4663C39.7881 11.3151 40.2346 11.1701 40.6838 11.0314L40.4625 10.3148ZM35.5482 12.1216L35.2526 11.4323C34.8077 11.6231 34.366 11.8201 33.9277 12.0231L34.243 12.7036L34.5582 13.3842C34.9835 13.1872 35.412 12.9961 35.8438 12.8109L35.5482 12.1216ZM30.8509 14.4354L30.4846 13.7809C30.0626 14.0171 29.6442 14.2592 29.2297 14.507L29.6145 15.1508L29.9993 15.7945C30.4016 15.554 30.8076 15.3191 31.2172 15.0899L30.8509 14.4354ZM26.4217 17.2283L25.9891 16.6157C25.5942 16.8946 25.2034 17.179 24.8169 17.4687L25.2668 18.0688L25.7168 18.6689C26.0919 18.3876 26.4711 18.1116 26.8544 17.841L26.4217 17.2283ZM22.3077 20.4679L21.8137 19.9037C21.45 20.2221 21.0908 20.5457 20.7364 20.8743L21.2463 21.4243L21.7562 21.9743C22.1002 21.6554 22.4488 21.3413 22.8018 21.0322L22.3077 20.4679ZM6.4601 47.0117L5.72865 46.846C5.62197 47.3167 5.52183 47.7899 5.42833 48.2655L6.16424 48.4102L6.90015 48.5549C6.99088 48.0934 7.08804 47.6342 7.19155 47.1775L6.4601 47.0117ZM5.57293 52.1718L4.82813 52.0836C4.77145 52.5625 4.72144 53.0434 4.67818 53.5262L5.42519 53.5931L6.1722 53.66C6.21418 53.1914 6.26272 52.7247 6.31773 52.2599L5.57293 52.1718ZM4.47363 58.1147C4.47363 57.8716 4.47534 57.6289 4.47875 57.3867L5.22867 57.3972L5.9786 57.4077C5.97529 57.643 5.97363 57.8786 5.97363 58.1147C5.97363 58.3508 5.97529 58.5864 5.9786 58.8217L5.22867 58.8322L4.47875 58.8427C4.47534 58.6005 4.47363 58.3578 4.47363 58.1147ZM5.42519 62.6363L4.67818 62.7032C4.72144 63.186 4.77145 63.6669 4.82813 64.1458L5.57293 64.0576L6.31773 63.9695C6.26272 63.5047 6.21418 63.038 6.1722 62.5694L5.42519 62.6363ZM6.16424 67.8192L5.42832 67.9639C5.52182 68.4395 5.62196 68.9127 5.72865 69.3834L6.4601 69.2177L7.19155 69.0519C7.08804 68.5952 6.99087 68.136 6.90015 67.6745L6.16424 67.8192ZM21.2463 94.8052L20.7364 95.3552C21.0908 95.6837 21.45 96.0073 21.8137 96.3257L22.3077 95.7615L22.8018 95.1972C22.4488 94.8881 22.1002 94.574 21.7562 94.2551L21.2463 94.8052ZM25.2668 98.1606L24.8169 98.7607C25.2034 99.0504 25.5942 99.3348 25.9891 99.6137L26.4217 99.0011L26.8544 98.3885C26.4711 98.1178 26.0919 97.8418 25.7168 97.5605L25.2668 98.1606ZM29.6145 101.079L29.2297 101.722C29.6442 101.97 30.0626 102.212 30.4846 102.449L30.8509 101.794L31.2172 101.14C30.8076 100.91 30.4016 100.675 29.9993 100.435L29.6145 101.079ZM34.243 103.526L33.9277 104.206C34.366 104.409 34.8077 104.606 35.2526 104.797L35.5482 104.108L35.8438 103.418C35.412 103.233 34.9835 103.042 34.5582 102.845L34.243 103.526ZM39.1025 105.473L38.8606 106.183C39.3179 106.339 39.7781 106.488 40.2411 106.631L40.4625 105.915L40.6838 105.198C40.2346 105.059 39.7881 104.914 39.3444 104.763L39.1025 105.473ZM71.6256 106.183C71.1684 106.339 70.7082 106.488 70.2451 106.631L70.0238 105.915L69.8025 105.198C70.2517 105.059 70.6982 104.914 71.1419 104.763L71.3837 105.473L71.6256 106.183ZM74.938 104.108L75.2336 104.797C75.6786 104.606 76.1203 104.409 76.5585 104.206L76.2433 103.526L75.9281 102.845C75.5028 103.042 75.0742 103.233 74.6425 103.418L74.938 104.108ZM79.6353 101.794L80.0016 102.449C80.4237 102.212 80.8421 101.97 81.2566 101.722L80.8717 101.079L80.4869 100.435C80.0846 100.675 79.6786 100.91 79.2691 101.14L79.6353 101.794ZM84.0645 99.0011L84.4972 99.6137C84.8921 99.3348 85.2828 99.0504 85.6693 98.7607L85.2194 98.1606L84.7695 97.5605C84.3944 97.8418 84.0152 98.1178 83.6319 98.3885L84.0645 99.0011ZM88.1785 95.7615L88.6726 96.3257C89.0363 96.0073 89.3954 95.6837 89.7498 95.3552L89.24 94.8051L88.7301 94.2551C88.3861 94.574 88.0375 94.8881 87.6845 95.1972L88.1785 95.7615ZM104.026 69.2177L104.758 69.3834C104.864 68.9127 104.964 68.4395 105.058 67.9639L104.322 67.8192L103.586 67.6745C103.495 68.136 103.398 68.5952 103.295 69.0519L104.026 69.2177ZM104.913 64.0576L105.658 64.1458C105.715 63.6669 105.765 63.186 105.808 62.7032L105.061 62.6363L104.314 62.5694C104.272 63.038 104.224 63.5048 104.169 63.9695L104.913 64.0576Z" fill="black"/>
<path d="M55.6176 16.3022L55.6177 40.5743" stroke="black" stroke-width="2"/>
<path d="M55.6177 47.2803L55.6177 57.3878" stroke="black" stroke-width="2"/>
<circle cx="97.7518" cy="83.1935" r="7.6003" transform="rotate(120 97.7518 83.1935)" stroke="black" stroke-width="2"/>
<path d="M91.2716 79.5485L70.0185 67.4954" stroke="black" stroke-width="2"/>
<circle r="7.6003" transform="matrix(0.5 0.866025 0.866025 -0.5 12.0839 83.9945)" stroke="black" stroke-width="2"/>
<path d="M19.0701 79.6193C31.2677 72.577 40.279 67.1066 40.279 67.1066" stroke="black" stroke-width="2"/>
<path d="M55.05 101.535L55.0516 75.7564" stroke="black" stroke-width="2"/>
<path d="M17.9663 35.8496L39.3071 48.7381" stroke="black" stroke-width="2"/>
<path d="M92.52 35.9186L71.4764 48.7381" stroke="black" stroke-width="2"/>
<circle cx="55.2226" cy="107.497" r="6.65829" transform="rotate(180 55.2226 107.497)" fill="#7ACC00"/>
<path fill-rule="evenodd" clip-rule="evenodd" d="M48.2142 29.0768C35.2298 32.246 25.5928 43.9557 25.5928 57.9162C25.5928 60.8978 26.0324 63.7768 26.8503 66.4918L28.7094 65.7253C27.9827 63.2487 27.5928 60.628 27.5928 57.9162C27.5928 44.9716 36.4768 34.102 48.4802 31.0719L48.2142 29.0768ZM49.546 39.0652C41.463 41.5197 35.5802 49.0307 35.5802 57.9157C35.5802 59.5499 35.7793 61.1376 36.1544 62.6559L38.0269 61.8839C37.7346 60.6083 37.5802 59.28 37.5802 57.9157C37.5802 50.0483 42.714 43.3799 49.8143 41.0777L49.546 39.0652ZM61.0065 41.1661L61.2756 39.1481C69.2212 41.6853 74.9752 49.1286 74.9752 57.9157C74.9752 59.6854 74.7418 61.4006 74.3041 63.0321L72.4374 62.2625C72.7886 60.8718 72.9752 59.4155 72.9752 57.9157C72.9752 50.1466 67.969 43.5468 61.0065 41.1661ZM66.3862 71.6933C63.3491 74.1451 59.4849 75.6132 55.2777 75.6132C50.949 75.6132 46.9833 74.0591 43.9081 71.4784L42.2894 72.7247C45.7567 75.768 50.3017 77.6132 55.2777 77.6132C60.1327 77.6132 64.5775 75.8567 68.0112 72.9445L66.3862 71.6933ZM74.4419 77.8959C69.4678 82.6682 62.7152 85.6011 55.2777 85.6011C47.7203 85.6011 40.8702 82.573 35.8745 77.6639L34.2756 78.8949C39.6485 84.2737 47.0745 87.6011 55.2777 87.6011C63.3612 87.6011 70.6901 84.37 76.0434 79.1289L74.4419 77.8959ZM83.5912 66.861C84.4821 64.0383 84.9626 61.0333 84.9626 57.9162C84.9626 44.052 75.4581 32.4078 62.6095 29.1436L62.3432 31.141C74.2106 34.2642 82.9626 45.0681 82.9626 57.9162C82.9626 60.7635 82.5327 63.5103 81.7344 66.0955L83.5912 66.861Z" fill="black"/>
<path d="M16.6948 27.1284C19.8794 28.9671 20.9706 33.0392 19.1319 36.2238C17.2933 39.4084 13.2211 40.4996 10.0365 38.6609C6.8519 36.8223 5.76077 32.7501 7.59941 29.5655C9.43805 26.3809 13.5102 25.2898 16.6948 27.1284Z" fill="#7ACC00"/>
<circle r="6.65829" transform="matrix(-0.5 -0.866025 -0.866025 0.5 97.503 33.3575)" fill="#7ACC00"/>
<path fill-rule="evenodd" clip-rule="evenodd" d="M50.8079 48.8481C47.4723 50.5465 45.1875 54.0126 45.1875 58.0123C45.1875 63.6883 49.7889 68.2897 55.4649 68.2897C61.141 68.2897 65.7423 63.6883 65.7423 58.0123C65.7423 53.9759 63.4154 50.483 60.0299 48.8018L59.7855 50.6564C62.3042 52.139 63.9945 54.8782 63.9945 58.0123C63.9945 62.723 60.1757 66.5418 55.4649 66.5418C50.7542 66.5418 46.9354 62.723 46.9354 58.0123C46.9354 54.916 48.5851 52.2051 51.0536 50.7106L50.8079 48.8481Z" fill="black"/>
</svg>
