<svg width="119" height="116" viewBox="0 0 119 116" fill="none" xmlns="http://www.w3.org/2000/svg">
<rect x="7.02798" y="20.2719" width="23.2788" height="24.1936" rx="2.4" stroke="black" stroke-width="1.2" stroke-dasharray="1.2 3"/>
<path d="M50.2322 1.49792C51.9372 3.90695 56.7112 9.48576 56.7112 9.48576C56.7112 9.48576 75.4661 9.48576 84.5026 9.48576" stroke="black" stroke-width="2"/>
<path fill-rule="evenodd" clip-rule="evenodd" d="M34.5142 6.49329H6.45044C3.13673 6.49329 0.450439 9.17958 0.450439 12.4933V103.785C0.450439 107.098 3.13672 109.785 6.45043 109.785H34.5142V107.785H6.45043C4.2413 107.785 2.45044 105.994 2.45044 103.785V12.4933C2.45044 10.2841 4.2413 8.49329 6.45044 8.49329H34.5142V6.49329Z" fill="black"/>
<circle cx="15.2715" cy="27.1764" r="3.44046" fill="black"/>
<circle cx="15.2715" cy="37.3365" r="3.44046" fill="black"/>
<path d="M26.5264 32.3225C26.5264 34.2227 24.9861 35.763 23.086 35.763C21.1859 35.763 19.6455 34.2227 19.6455 32.3225C19.6455 30.4224 21.1859 28.8821 23.086 28.8821C24.9861 28.8821 26.5264 30.4224 26.5264 32.3225Z" fill="#7ACC00"/>
<rect x="46.3672" y="97.3519" width="10.3069" height="10.3069" rx="3" fill="#7ACC00"/>
<rect x="87.6273" y="97.9519" width="9.10688" height="9.10688" rx="2.4" stroke="black" stroke-width="1.2"/>
<rect x="74.0741" y="97.9519" width="9.10688" height="9.10688" rx="2.4" stroke="black" stroke-width="1.2"/>
<rect x="60.5207" y="97.9519" width="9.10688" height="9.10688" rx="2.4" stroke="black" stroke-width="1.2"/>
<path d="M6.39429 98.5114C6.39429 98.5114 9.36521 98.5114 17.3146 98.5114M18.7625 98.5114H21.8883" stroke="black" stroke-width="2"/>
<path d="M91.9683 66.6149L91.963 66.6197L91.9577 66.6246L85.994 72.1649C86.0121 71.1983 86.052 69.8114 86.1281 67.826C86.2407 64.8887 83.8302 62.4672 80.9163 62.4843C78.5772 62.498 75.9938 62.4775 73.9279 62.4522C72.3036 62.4323 71 61.1069 71 59.4716V33.4553C71 31.7985 72.3431 30.4553 74 30.4553H114.473C116.13 30.4553 117.473 31.7985 117.473 33.4553V59.3908C117.473 61.0476 116.13 62.3908 114.473 62.3908H98.5711C97.3334 62.3908 96.1397 62.8498 95.2209 63.6791L91.9683 66.6149Z" fill="white" stroke="black" stroke-width="2"/>
<path d="M78.9167 41.9524C78.9167 41.9524 81.8877 41.9524 89.837 41.9524M91.285 41.9524H109.356M82.0088 46.7837H104.782M106.328 46.7837C114.278 46.7837 101.406 46.7837 109.356 46.7837M86.5825 51.4218H109.356" stroke="#7ACC00" stroke-width="2"/>
<path fill-rule="evenodd" clip-rule="evenodd" d="M46.6472 2.88892H97.0549C99.264 2.88892 101.055 4.67977 101.055 6.88892V25.397H103.055V6.88892C103.055 3.57521 100.369 0.888916 97.0549 0.888916H46.6472C43.3335 0.888916 40.6472 3.5752 40.6472 6.88891V109.389C40.6472 112.703 43.3335 115.389 46.6472 115.389H97.0549C100.369 115.389 103.055 112.703 103.055 109.389V73.0019H101.055V109.389C101.055 111.598 99.264 113.389 97.0549 113.389H46.6472C44.4381 113.389 42.6472 111.598 42.6472 109.389V6.88891C42.6472 4.67978 44.4381 2.88892 46.6472 2.88892Z" fill="black"/>
</svg>
