<svg width="79" height="115" viewBox="0 0 79 115" fill="none" xmlns="http://www.w3.org/2000/svg">
<path d="M57.5685 7.08401C58.5542 9.27605 60.1033 12.3131 61.9755 15.201C63.8417 18.0797 66.053 20.8483 68.3732 22.4672C68.4402 22.5155 68.5084 22.5779 68.5805 22.6511L68.6115 22.6826L68.6487 22.7065C72.4212 25.1398 74.8857 29.1862 74.8857 33.7358V37.1934V37.5934H75.2857C77.1453 37.5934 78.6 38.9872 78.6 40.6509V49.2949C78.6 50.9586 77.1453 52.3524 75.2857 52.3524H74.8857V52.7524V61.3964V61.7964H75.2857C75.7181 61.7964 76.368 61.9673 76.9094 62.2565C77.1773 62.3995 77.3968 62.5602 77.5443 62.7224C77.6927 62.8856 77.7429 63.0209 77.7429 63.1251V75.2266C77.7429 75.3308 77.6927 75.4662 77.5443 75.6294C77.3968 75.7916 77.1773 75.9522 76.9094 76.0952C76.368 76.3844 75.7181 76.5554 75.2857 76.5554H74.8857V76.9554V82.1418C74.8857 86.691 72.4215 90.7242 68.6557 93.1577L68.6056 93.1901L68.5671 93.2357C68.5192 93.2924 68.4597 93.3414 68.3659 93.4154C66.0484 95.0351 63.8398 97.8008 61.9755 100.677C60.1034 103.564 58.5544 106.601 57.5687 108.793C56.3821 111.413 53.7987 113.268 50.7707 113.729L50.8309 114.124L50.7706 113.729C47.9103 114.165 43.7011 114.589 38.1429 114.589C32.5846 114.589 28.3754 114.165 25.5151 113.729L25.4548 114.124L25.515 113.729C22.487 113.268 19.9036 111.413 18.7171 108.793C17.7313 106.601 16.1823 103.564 14.3103 100.677C12.4444 97.7984 10.2336 95.0303 7.91393 93.4113C7.83072 93.3501 7.74307 93.2747 7.65648 93.1941L7.63109 93.1705L7.60202 93.1516C3.85037 90.7115 1.4 86.6782 1.4 82.1418V33.7358C1.4 29.1865 3.86419 25.1534 7.63004 22.7199L7.68014 22.6875L7.71862 22.6419C7.7665 22.5852 7.82604 22.5361 7.91987 22.4621C10.2373 20.8425 12.446 18.0767 14.3103 15.201C16.1824 12.3131 17.7314 9.27612 18.7172 7.08408C19.9038 4.46422 22.4871 2.60986 25.515 2.14875L25.5151 2.14874C28.3754 1.71279 32.5846 1.28892 38.1429 1.28892C43.7011 1.28892 47.9103 1.71279 50.7706 2.14874L50.7707 2.14875C53.7985 2.60985 56.3819 4.46418 57.5685 7.08401ZM57.5685 7.08401C57.5684 7.08382 57.5683 7.08364 57.5682 7.08345L57.933 6.9194M57.5685 7.08401C57.5685 7.08414 57.5686 7.08428 57.5687 7.08441L57.933 6.9194M57.933 6.9194C59.8917 11.2751 64.0921 18.9939 68.6044 22.1408L50.8309 1.75331C53.9794 2.23278 56.6853 4.16415 57.933 6.9194ZM54.8737 8.09913L54.8735 8.09862C54.0648 6.308 52.3384 5.08346 50.296 4.77488C47.5849 4.35995 43.5386 3.94648 38.1429 3.94648C32.747 3.94648 28.7006 4.35997 25.9895 4.77491C23.9472 5.08352 22.2209 6.30805 21.4122 8.09862L21.412 8.09913C20.0304 11.1697 17.7541 15.7797 14.6513 19.6977L14.1066 20.3854L14.983 20.3456C15.0956 20.3405 15.2011 20.3341 15.3028 20.3279C15.493 20.3163 15.6703 20.3055 15.8571 20.3055H60.4286C60.6154 20.3055 60.7927 20.3163 60.9829 20.3279C61.0846 20.3341 61.1901 20.3405 61.3027 20.3456L62.1791 20.3854L61.6344 19.6977C58.5317 15.7797 56.2553 11.1697 54.8737 8.09913ZM14.983 95.5319L14.1066 95.4921L14.6513 96.1798C17.7541 100.098 20.0304 104.708 21.412 107.778L21.4122 107.779C22.221 109.57 23.9472 110.794 25.9886 111.109L25.9901 111.11C28.7005 111.518 32.7466 111.931 38.1429 111.931C43.5391 111.931 47.5852 111.518 50.2956 111.11L50.2971 111.109C52.3385 110.794 54.0647 109.57 54.8735 107.779L54.8737 107.778C56.2553 104.708 58.5317 100.098 61.6344 96.1798L62.1791 95.4921L61.3027 95.5319C61.1901 95.537 61.0847 95.5435 60.9829 95.5497C60.7927 95.5612 60.6154 95.572 60.4286 95.572H15.8571C15.6703 95.572 15.493 95.5612 15.3028 95.5497C15.2011 95.5435 15.0956 95.537 14.983 95.5319Z" stroke="black" stroke-width="0.8"/>
<rect x="6.85" y="25.6591" width="62.5501" height="64.9324" rx="9.4" stroke="black" stroke-width="1.2" stroke-dasharray="1.2 4"/>
<circle cx="36.9833" cy="39.1784" r="5.4784" stroke="black" stroke-width="2"/>
<circle cx="53.259" cy="53.4541" r="10.2292" stroke="#7ACC00" stroke-width="2"/>
<circle cx="43.3256" cy="75.3444" r="7.20598" stroke="black" stroke-width="2"/>
<circle cx="30.5282" cy="63.6834" r="3.75083" stroke="black" stroke-width="2"/>
<circle cx="15.5312" cy="36.0837" r="2.03125" fill="white" stroke="black"/>
<circle cx="15.5312" cy="51.042" r="2.03125" fill="white" stroke="black"/>
<circle cx="15.5312" cy="43.5629" r="2.03125" fill="white" stroke="#7ACC00"/>
<circle cx="15.5312" cy="58.5211" r="2.03125" fill="white" stroke="black"/>
<circle cx="15.5312" cy="66.0002" r="2.03125" fill="white" stroke="black"/>
<circle cx="15.5312" cy="73.4794" r="2.03125" fill="white" stroke="black"/>
<circle cx="15.5312" cy="80.9585" r="2.03125" fill="white" stroke="black"/>
<rect x="1.5" y="21.1389" width="73.0625" height="73.75" rx="13" stroke="black" stroke-width="2"/>
</svg>
